<svg xmlns="http://www.w3.org/2000/svg" xmlns:xlink="http://www.w3.org/1999/xlink" version="1.1" x="0px" y="0px" viewBox="0 0 65 82" xml:space="preserve">
<g fill="#ffffff">
	<path d="M62.9,48l2.4-0.4l0-4.1L62.9,43c-0.2-0.8-0.5-1.5-0.9-2.2l1.4-2l-2.9-2.9l-2,1.4c-0.7-0.4-1.5-0.7-2.3-0.9L55.7,34l-4.1,0   l-0.4,2.4c-0.8,0.2-1.5,0.5-2.2,0.9l-2-1.4L44,38.9l1.4,2c-0.4,0.7-0.7,1.5-0.9,2.3l-2.4,0.4l0,0.9c-2.8-1.1-5.3-3.6-6.7-6.9   c0.7-0.8,1.3-1.6,1.9-2.5h7.2v-5.9c0.5-0.2,0.9-0.4,1.2-0.8c0.7-0.7,1.1-1.6,1.1-2.6l0-3.3c0-1.6-1.1-3-2.6-3.4   c-0.5-8.6-7.6-15.4-16.3-15.4h-1.5c-8.7,0-15.9,6.9-16.3,15.5c-1.4,0.5-2.3,1.8-2.3,3.4l0,3.3c0,1,0.4,1.9,1.1,2.6   c0.7,0.7,1.6,1.1,2.6,1.1l2.5,0l0-10.5l-2.2,0c0.6-7.7,7-13.8,14.8-13.8h1.5c7.8,0,14.3,6.1,14.8,13.8l-2,0l0,10.5l2.3,0v4.1h-4.9   c0.3-0.7,0.6-1.4,0.8-2.2l0,0c0.3-1,0.5-4.1,1.1-13.2c0.4-6.6-1.4-7.5-4.7-8.5c-0.2-0.1-0.5-0.2-0.8-0.2c-2.7-0.9-5.4-1-7.2-1.1   c-1.8,0-4.6,0.2-7.2,1.1c-0.3,0.1-0.5,0.2-0.8,0.2c-3.3,1-5.1,1.9-4.7,8.5c0.6,9.1,0.8,12.1,1.1,13.2l0,0c0.8,2.5,2,4.6,3.6,6.2   c-2.2,5.2-6.8,7.5-10.9,9.5c-2.3,1.1-4.2,2.1-5.5,3.4c-3.1,3.3-3.1,7.4-3.1,10.1v0.8h55.1v-0.8c0-1,0-2.2-0.2-3.4l1.1,0l0.4-2.4   c0.8-0.2,1.5-0.5,2.2-0.9l2,1.4l2.9-2.9l-1.4-2C62.4,49.6,62.7,48.8,62.9,48z M12.3,28l-1,0c-0.6,0-1.1-0.2-1.5-0.6   c-0.4-0.4-0.6-0.9-0.6-1.5l0-3.3c0-1.2,0.9-2.1,2.1-2.1l1,0L12.3,28z M42.2,20.5l1,0c1.2,0,2.1,0.9,2.1,2.1l0,3.3   c0,0.6-0.2,1.1-0.6,1.5c-0.4,0.4-0.9,0.6-1.5,0.6l-1,0L42.2,20.5z M38.6,44.2c-1.9,3.2-4.1,6-6.5,8.4c-0.2,0.2-0.4,0.4-0.7,0.6   l-0.9-5l1.3-3l4.9-2.9C37.2,43,37.9,43.7,38.6,44.2z M23.7,44l-4.7-2.8c0.5-0.7,1-1.6,1.5-2.5c2,1.6,4.4,2.6,6.9,2.6   c2.6,0,4.9-0.9,7-2.6c0.4,0.9,0.9,1.7,1.4,2.5L30.9,44H23.7z M25.4,47.4l-0.8-1.9H30l-0.8,1.9H25.4z M25.6,48.9h3.5l1,5.6   c-1.3,1.1-2.3,1.8-2.8,2.1c-0.5-0.3-1.5-1-2.7-2.1L25.6,48.9z M19.7,11.1c0.3-0.1,0.5-0.2,0.8-0.2c2-0.6,4.3-1,6.8-1   c2.5,0,4.8,0.4,6.8,1c0.3,0.1,0.5,0.2,0.8,0.2c2.8,0.9,4,1.2,3.7,6.9c0,0.1,0,0.2,0,0.2c-0.3-0.3-0.6-0.5-1-0.7   c-0.9-0.4-1.9-0.5-2.8-0.2c-4.2,1.4-8-0.1-8-0.1c-1.8-0.8-3.6-1.4-5.2-1.7c-1.7-0.3-3.4,0.1-4.7,1.2c-0.3,0.3-0.6,0.5-0.8,0.8   C15.8,12.4,17,12,19.7,11.1z M17.1,30.9c-0.1-0.8-0.5-6.3-0.8-10l0.1,0c0-1.2,0.6-2.2,1.5-3c1-0.8,2.2-1.1,3.5-0.9   c1.5,0.3,3.1,0.8,4.8,1.6c0.2,0.1,4.3,1.7,9,0.2c0.5-0.2,1.2-0.1,1.7,0.1c0.5,0.2,0.9,0.7,1.1,1.2c0.1,0.3,0.2,0.6,0.2,1l0.1,0   c-0.3,3.6-0.7,9-0.8,9.7l0,0c-0.3,0.9-0.7,1.8-1.1,2.6h-3.8v-1.8h-7.9v5.1h7.9v-1.8h2.9c-2,3-5,4.7-8.2,4.7   C22.8,39.8,18.8,36.3,17.1,30.9L17.1,30.9z M31.1,33.3v2.1h-4.9v-2.1H31.1z M18,42.4l4.9,2.9l1.3,3l-0.9,5c-2.1-2-4.8-5-7.3-9.1   C16.7,43.7,17.3,43,18,42.4z M53.4,59.8H1.3c0-2.5,0.2-5.7,2.7-8.3c1.1-1.1,2.9-2,5-3.1c1.9-0.9,3.9-1.9,5.9-3.3   c5.7,9.2,11.8,12.8,12.1,13l0.4,0.2l0.4-0.2c0.1-0.1,2.4-1.4,5.4-4.4c2.5-2.5,4.7-5.4,6.7-8.6c0.7,0.4,1.5,0.8,2.3,1l0,1.6l2.4,0.4   c0.2,0.8,0.5,1.5,0.9,2.2l-1.4,2l2.9,2.9l2-1.4c0.7,0.4,1.5,0.7,2.3,0.9l0.5,2.4l1.6,0C53.3,58.1,53.4,59,53.4,59.8z M61.5,47.2   c-0.2,1-0.6,1.9-1.1,2.7l-0.3,0.4l1.2,1.8l-1.1,1.2L58.5,52L58,52.3c-0.8,0.5-1.7,0.9-2.7,1.1l-0.5,0.1l-0.4,2.1l-1.6,0l-0.4-2.1   L52,53.4c-0.9-0.2-1.8-0.6-2.7-1.1l-0.4-0.3l-1.8,1.2L46,52.2l1.2-1.8L46.9,50c-0.5-0.8-0.9-1.7-1.1-2.7l-0.1-0.5l-2.1-0.4l0-1.6   l2.1-0.4l0.1-0.5c0.2-0.9,0.6-1.8,1.1-2.7l0.3-0.4L45.9,39l1.1-1.2l1.8,1.2l0.4-0.3c0.8-0.5,1.7-0.9,2.7-1.1l0.5-0.1l0.4-2.1l1.6,0   l0.4,2.1l0.5,0.1c1,0.2,1.9,0.6,2.7,1.1l0.4,0.3l1.8-1.2l1.2,1.1l-1.2,1.8l0.3,0.4c0.5,0.8,0.9,1.7,1.1,2.7l0.1,0.5l2.1,0.4l0,1.6   l-2.1,0.4L61.5,47.2z"/>
	<path d="M53.6,40.3c-1.4,0-2.7,0.6-3.7,1.6c-1,1-1.5,2.3-1.5,3.7c0,2.9,2.4,5.2,5.2,5.2h0c2.9,0,5.2-2.4,5.2-5.3   C58.9,42.7,56.5,40.3,53.6,40.3z M53.7,49.3l0,0.8L53.7,49.3c-2.1,0-3.7-1.7-3.8-3.7c0-1,0.4-1.9,1.1-2.6c0.7-0.7,1.6-1.1,2.7-1.1   c2.1,0,3.7,1.7,3.7,3.7C57.4,47.6,55.7,49.3,53.7,49.3z"/>
</g>
<text x="0" y="75" fill="#ffffff" font-size="5px" font-weight="bold" font-family="'Helvetica Neue', Helvetica, Arial-Unicode, Arial, Sans-serif">Created by Creative Stall</text>
<text x="0" y="80" fill="#ffffff" font-size="5px" font-weight="bold" font-family="'Helvetica Neue', Helvetica, Arial-Unicode, Arial, Sans-serif">from the Noun Project</text>
</svg>